<svg xmlns="http://www.w3.org/2000/svg" width="79.376" height="99.167" viewBox="0 0 79.376 99.167">
  <g id="first" transform="translate(-0.002)">
    <path id="Path_2451" data-name="Path 2451" d="M577.828,109.677h-.545V94.75a8.639,8.639,0,0,0-8.639-8.639H537.02a8.639,8.639,0,0,0-8.639,8.639v81.888a8.639,8.639,0,0,0,8.639,8.639h31.624a8.639,8.639,0,0,0,8.639-8.639V120.3h.545Z" transform="translate(-498.45 -86.111)" fill="#3f3d56"/>
    <path id="Path_2452" data-name="Path 2452" d="M584.1,102.606h-4.128a3.065,3.065,0,0,1-2.838,4.223H559.021a3.065,3.065,0,0,1-2.838-4.223h-3.856a6.452,6.452,0,0,0-6.452,6.452v81.768a6.452,6.452,0,0,0,6.452,6.452H584.1a6.452,6.452,0,0,0,6.452-6.452h0V109.058A6.452,6.452,0,0,0,584.1,102.606Z" transform="translate(-513.56 -100.358)" fill="#fff"/>
    <rect id="Rectangle_1964" data-name="Rectangle 1964" width="18.477" height="31.565" transform="translate(36.123 17.475)" fill="#e6e6e6"/>
    <rect id="Rectangle_1965" data-name="Rectangle 1965" width="15.357" height="35.736" transform="translate(57.774 51.513)" fill="#e6e6e6"/>
    <rect id="Rectangle_1966" data-name="Rectangle 1966" width="15.398" height="8.689" transform="translate(57.789 17.475)" fill="#e6e6e6"/>
    <rect id="Rectangle_1967" data-name="Rectangle 1967" width="15.398" height="9.349" transform="translate(57.789 28.583)" fill="#e6e6e6"/>
    <rect id="Rectangle_1968" data-name="Rectangle 1968" width="15.398" height="8.689" transform="translate(57.789 40.352)" fill="#e6e6e6"/>
    <rect id="Rectangle_1969" data-name="Rectangle 1969" width="18.477" height="13.756" transform="translate(36.145 51.513)" fill="#ffce33"/>
    <rect id="Rectangle_1970" data-name="Rectangle 1970" width="18.477" height="19.343" transform="translate(36.145 67.936)" fill="#e6e6e6"/>
    <path id="Path_2453" data-name="Path 2453" d="M433.756,410.405l2.572,1.306c.918.466,1.8.387,2.143-.586h0a1.7,1.7,0,0,0-1.294-2.232l-2.444-.456-10.469-3.473-6.341-4.5-2.325,3.7,7.327,3.954Z" transform="translate(-401.034 -357.633)" fill="#ffb8b8"/>
    <path id="Path_2454" data-name="Path 2454" d="M149.939,679.8l1.968-.328-.219-3.717h-2.077Z" transform="translate(-129.223 -583.674)" fill="#ffb8b8"/>
    <path id="Path_2455" data-name="Path 2455" d="M11.857,654.969l1.9.594,1.48-3.416-1.854-.936Z" transform="translate(-10.24 -562.477)" fill="#ffb8b8"/>
    <path id="Path_2456" data-name="Path 2456" d="M387.016,310c3.747-1.594,8.413-.584,12.971.117.042-.849.556-1.881.018-2.473a1.8,1.8,0,0,1-.2-2.235c1.007-1.944-.436-4.012-1.892-5.732a3.225,3.225,0,0,0-2.692-1.13l-2.7.193a3.231,3.231,0,0,0-2.869,2.309h0a3.156,3.156,0,0,0-.772,2.619,1.685,1.685,0,0,0-.693,2.352,1.352,1.352,0,0,1-.017,1.65,7.616,7.616,0,0,0-1.132,2.249Z" transform="translate(-376.347 -269.594)" fill="#2f2e41"/>
    <path id="Path_2457" data-name="Path 2457" d="M328.37,516.481l2.405.984,11.479-15.086,3.608,17.71,2.4-.437c1.543-15.268,2.8-30.841,1.257-38.207l-8.91-.383-4.045,12.9-1.968,8.746Z" transform="translate(-325.692 -427.246)" fill="#2f2e41"/>
    <path id="Path_2458" data-name="Path 2458" d="M452.89,784.979h0a1.727,1.727,0,0,0,1.07-.114l1.169-.526c.98-.05,1.648.145,2.193-.567a1.43,1.43,0,0,0,.167-1.442h0a1.44,1.44,0,0,0-1.176-.856l-1.606-1.012-.084.758a2.794,2.794,0,0,1-2.528-.169l-.5,1.764a1.727,1.727,0,0,0,1.3,2.163Z" transform="translate(-432.066 -685.851)" fill="#2f2e41"/>
    <path id="Path_2459" data-name="Path 2459" d="M309.568,761.88h0a1.727,1.727,0,0,0,1.049.24l1.276-.118c.943.271,1.511.672,2.259.176a1.43,1.43,0,0,0,.626-1.31h0a1.44,1.44,0,0,0-.834-1.191l-1.19-1.478-.326.69a2.794,2.794,0,0,1-2.336-.98l-1.049,1.5a1.727,1.727,0,0,0,.526,2.467Z" transform="translate(-308.73 -666.37)" fill="#2f2e41"/>
    <circle id="Ellipse_425" data-name="Ellipse 425" cx="3.935" cy="3.935" r="3.935" transform="translate(14.266 30.421)" fill="#ffb8b8"/>
    <path id="Path_2460" data-name="Path 2460" d="M98.264,274.311l5.138-1.093.656-4.263-3.608-.765Z" transform="translate(-84.873 -231.646)" fill="#ffb8b8"/>
    <path id="Path_2461" data-name="Path 2461" d="M400.532,396.962h9.183l-2.07-5.2a5.289,5.289,0,0,0-1.692-4.248l-1.376-3.455c-2.223-1.463-3.9-1.354-5.685.547C396.776,387.606,398.241,392.11,400.532,396.962Z" transform="translate(-385.72 -342.6)" fill="#ffce33"/>
    <path id="Path_2462" data-name="Path 2462" d="M420.192,447.606l.261,2.873c.093,1.025.632,1.733,1.635,1.5h0a1.7,1.7,0,0,0,1.2-2.282l-.913-2.313-2.624-10.713.437-7.762h-4.373l.547,8.308Z" transform="translate(-401.225 -382.203)" fill="#ffb8b8"/>
    <path id="Path_2463" data-name="Path 2463" d="M397.307,314.42a19.848,19.848,0,0,1,3.389-9.677l.282-.009v-.07l.915.039,2.543-.085c-.06.062-.116.124-.174.186l1.854.079,1.749,3.608a11.618,11.618,0,0,0-5.177-.294,1.238,1.238,0,0,0-.968.771.461.461,0,0,0,0,.405,4.187,4.187,0,0,1-.049,4.169c-.163.323.15.711.248,1.067Z" transform="translate(-385.236 -274.844)" fill="#2f2e41"/>
    <path id="Path_2464" data-name="Path 2464" d="M413.413,395.886h5.029l-.353-3.28a2.276,2.276,0,0,0-2.16-2.18h0a2.276,2.276,0,0,0-2.388,2.184Z" transform="translate(-399.147 -348.957)" fill="#ffce33"/>
  </g>
</svg>
