<svg xmlns="http://www.w3.org/2000/svg" width="128.048" height="88.524" viewBox="0 0 128.048 88.524">
  <g id="ic_congo" transform="translate(-0.355 -24.737)">
    <ellipse id="Ellipse_411" data-name="Ellipse 411" cx="3.519" cy="0.484" rx="3.519" ry="0.484" transform="translate(0.355 103.223)" fill="#ffce33" opacity="0.1"/>
    <ellipse id="Ellipse_412" data-name="Ellipse 412" cx="3.519" cy="0.484" rx="3.519" ry="0.484" transform="translate(13.836 104.59)" fill="#ffce33" opacity="0.1"/>
    <ellipse id="Ellipse_413" data-name="Ellipse 413" cx="3.519" cy="0.484" rx="3.519" ry="0.484" transform="translate(29.715 102.739)" fill="#ffce33" opacity="0.1"/>
    <ellipse id="Ellipse_414" data-name="Ellipse 414" cx="2.502" cy="0.343" rx="2.502" ry="0.343" transform="translate(9.457 108.623)" fill="#ffce33" opacity="0.1"/>
    <ellipse id="Ellipse_415" data-name="Ellipse 415" cx="2.502" cy="0.343" rx="2.502" ry="0.343" transform="translate(23.45 108.28)" fill="#ffce33" opacity="0.1"/>
    <path id="Path_2364" data-name="Path 2364" d="M186.879,624.23s-4.936-16.181.771-22.661c4.271-4.849,9.118-4.269,11.289-3.669a4.013,4.013,0,0,1,2.59,2.152c.759,1.636.622,4.295-4.736,7.4-8.971,5.194-9.528,12.318-9.528,12.318Z" transform="translate(-169.448 -519.264)" fill="#ffce33"/>
    <path id="Path_2365" data-name="Path 2365" d="M207.706,617.23s-14.55,4.549-11.288,24.035" transform="translate(-178.987 -536.3)" fill="none" stroke="#565987" stroke-miterlimit="10" stroke-width="1"/>
    <path id="Path_2366" data-name="Path 2366" d="M219.91,629.2s2,1.349,1.363,3.379" transform="translate(-199.689 -546.638)" fill="none" stroke="#565987" stroke-miterlimit="10" stroke-width="1"/>
    <path id="Path_2367" data-name="Path 2367" d="M254.345,633.149a2.528,2.528,0,0,0-2.715-.559" transform="translate(-227.086 -549.388)" fill="none" stroke="#565987" stroke-miterlimit="10" stroke-width="1"/>
    <path id="Path_2368" data-name="Path 2368" d="M212.2,681.383s-2.151-1.09-2.707.273" transform="translate(-190.689 -591.353)" fill="none" stroke="#565987" stroke-miterlimit="10" stroke-width="1"/>
    <path id="Path_2369" data-name="Path 2369" d="M190.3,700.63s1.615-.128,1.645.645" transform="translate(-174.114 -608.326)" fill="none" stroke="#565987" stroke-miterlimit="10" stroke-width="1"/>
    <path id="Path_2370" data-name="Path 2370" d="M198,721.607s5.781-11.76,7.369-11.5c.754.123,1.1.864,1.259,1.61a4.743,4.743,0,0,1-.315,2.87A12.7,12.7,0,0,1,198,721.607Z" transform="translate(-180.765 -616.512)" fill="#ffce33"/>
    <path id="Path_2371" data-name="Path 2371" d="M205.84,726.51s-6.068,8.8-7.24,9.185" transform="translate(-181.283 -630.686)" fill="none" stroke="#565987" stroke-miterlimit="10" stroke-width="1"/>
    <line id="Line_10" data-name="Line 10" x1="1.416" transform="translate(23.699 97.197)" fill="none" stroke="#565987" stroke-miterlimit="10" stroke-width="1"/>
    <line id="Line_11" data-name="Line 11" x1="2.219" y2="0.095" transform="translate(21.2 100.416)" fill="none" stroke="#565987" stroke-miterlimit="10" stroke-width="1"/>
    <line id="Line_12" data-name="Line 12" x2="0.241" y2="1.156" transform="translate(22.068 97.841)" fill="none" stroke="#565987" stroke-miterlimit="10" stroke-width="1"/>
    <line id="Line_13" data-name="Line 13" x2="0.044" y2="1.051" transform="translate(19.707 101.36)" fill="none" stroke="#565987" stroke-miterlimit="10" stroke-width="1"/>
    <path id="Path_2372" data-name="Path 2372" d="M143.956,721.607s-5.781-11.76-7.369-11.5c-.754.123-1.1.864-1.259,1.61a4.733,4.733,0,0,0,.316,2.862A12.67,12.67,0,0,0,143.956,721.607Z" transform="translate(-126.554 -616.512)" fill="#ffce33"/>
    <path id="Path_2373" data-name="Path 2373" d="M145.48,726.51s6.068,8.8,7.24,9.185" transform="translate(-135.403 -630.686)" fill="none" stroke="#565987" stroke-miterlimit="10" stroke-width="1"/>
    <line id="Line_14" data-name="Line 14" x2="1.416" transform="translate(9.52 97.197)" fill="none" stroke="#565987" stroke-miterlimit="10" stroke-width="1"/>
    <line id="Line_15" data-name="Line 15" x2="2.22" y2="0.095" transform="translate(11.215 100.416)" fill="none" stroke="#565987" stroke-miterlimit="10" stroke-width="1"/>
    <line id="Line_16" data-name="Line 16" x1="0.241" y2="1.156" transform="translate(12.326 97.841)" fill="none" stroke="#565987" stroke-miterlimit="10" stroke-width="1"/>
    <line id="Line_17" data-name="Line 17" x1="0.044" y2="1.051" transform="translate(14.884 101.36)" fill="none" stroke="#565987" stroke-miterlimit="10" stroke-width="1"/>
    <path id="Path_2374" data-name="Path 2374" d="M251.783,804.6a1,1,0,0,0,.33-.5.442.442,0,0,0-.23-.506c-.211-.082-.437.065-.608.213a.817.817,0,0,1-.592.286.9.9,0,0,0,.273-.842.352.352,0,0,0-.076-.172c-.117-.125-.33-.071-.47.027a1.75,1.75,0,0,0-.574,1.467,2.791,2.791,0,0,1-.008-.6.617.617,0,0,0-.228-.534.665.665,0,0,0-.345-.082.743.743,0,0,0-.561.159.558.558,0,0,0,.022.69,2.2,2.2,0,0,0,.581.465,1.3,1.3,0,0,1,.409.4.407.407,0,0,1,.03.071h1.258A3.486,3.486,0,0,0,251.783,804.6Z" transform="translate(-224.454 -696.764)" fill="#ffce33"/>
    <path id="Path_2375" data-name="Path 2375" d="M90.147,769.852a1,1,0,0,0,.33-.5.444.444,0,0,0-.23-.507c-.211-.08-.436.067-.608.214a.815.815,0,0,1-.591.285.9.9,0,0,0,.273-.842.356.356,0,0,0-.078-.17c-.117-.125-.33-.072-.47.027a1.75,1.75,0,0,0-.574,1.467,2.8,2.8,0,0,1-.008-.605.613.613,0,0,0-.226-.533.669.669,0,0,0-.346-.082.713.713,0,0,0-.562.159.548.548,0,0,0,.022.681,2.162,2.162,0,0,0,.582.466,1.277,1.277,0,0,1,.409.4.475.475,0,0,1,.031.071h1.258A3.51,3.51,0,0,0,90.147,769.852Z" transform="translate(-84.847 -666.748)" fill="#ffce33"/>
    <path id="Path_2376" data-name="Path 2376" d="M144.023,804.6a1,1,0,0,0,.33-.5.442.442,0,0,0-.23-.506c-.211-.082-.437.065-.608.213a.817.817,0,0,1-.592.286.9.9,0,0,0,.273-.842.351.351,0,0,0-.076-.172c-.117-.125-.33-.071-.47.027a1.75,1.75,0,0,0-.574,1.467,2.791,2.791,0,0,1-.008-.6.616.616,0,0,0-.226-.534.673.673,0,0,0-.346-.082.745.745,0,0,0-.562.159.558.558,0,0,0,.022.69,2.2,2.2,0,0,0,.581.465,1.3,1.3,0,0,1,.409.4.407.407,0,0,1,.03.071h1.258A3.486,3.486,0,0,0,144.023,804.6Z" transform="translate(-131.381 -696.764)" fill="#ffce33"/>
    <path id="Path_2377" data-name="Path 2377" d="M308.849,744.43s.472.618-.218,1.548-1.257,1.717-1.028,2.3c0,0,1.04-1.73,1.886-1.754S309.779,745.47,308.849,744.43Z" transform="translate(-275.385 -646.164)" fill="#ffce33"/>
    <path id="Path_2378" data-name="Path 2378" d="M309.02,744.43a.788.788,0,0,1,.1.194c.826.97,1.265,1.875.472,1.9-.74.022-1.626,1.344-1.839,1.678.007.026.015.05.025.076,0,0,1.04-1.73,1.886-1.754S309.951,745.47,309.02,744.43Z" transform="translate(-275.557 -646.164)" opacity="0.1"/>
    <path id="Path_2379" data-name="Path 2379" d="M322.809,749.322c0,.217-.025.393-.055.393s-.055-.176-.055-.393.031-.115.061-.115S322.809,749.105,322.809,749.322Z" transform="translate(-288.47 -650.269)" fill="#ffd037"/>
    <path id="Path_2380" data-name="Path 2380" d="M323.355,751.144c-.191.1-.357.166-.371.136s.128-.136.319-.236.115-.029.129,0S323.546,751.041,323.355,751.144Z" transform="translate(-288.714 -651.833)" fill="#ffd037"/>
    <path id="Path_2381" data-name="Path 2381" d="M292.093,744.43s-.472.618.218,1.548,1.258,1.717,1.028,2.3c0,0-1.04-1.73-1.886-1.754S291.168,745.47,292.093,744.43Z" transform="translate(-261.122 -646.164)" fill="#ffce33"/>
    <path id="Path_2382" data-name="Path 2382" d="M292.093,744.43a.761.761,0,0,0-.1.194c-.826.97-1.266,1.875-.473,1.9.74.022,1.627,1.344,1.84,1.678-.008.026-.016.05-.026.076,0,0-1.04-1.73-1.886-1.754S291.168,745.47,292.093,744.43Z" transform="translate(-261.122 -646.164)" opacity="0.1"/>
    <path id="Path_2383" data-name="Path 2383" d="M292.36,749.322c0,.217.025.393.055.393s.055-.176.055-.393-.03-.115-.06-.115S292.36,749.105,292.36,749.322Z" transform="translate(-262.265 -650.269)" fill="#ffd037"/>
    <path id="Path_2384" data-name="Path 2384" d="M289.388,751.144c.191.1.357.166.372.136s-.129-.136-.319-.236-.116-.029-.136,0S289.2,751.041,289.388,751.144Z" transform="translate(-259.594 -651.833)" fill="#ffd037"/>
    <path id="Path_2385" data-name="Path 2385" d="M293.46,767.535a4.813,4.813,0,0,0,1.716-.323c.4-.283,2.028-.621,2.128-.168s1.98,2.257.492,2.269a12.607,12.607,0,0,1-3.854-.473C293.544,768.6,293.46,767.535,293.46,767.535Z" transform="translate(-263.215 -665.504)" fill="#a8a8a8"/>
    <path id="Path_2386" data-name="Path 2386" d="M297.823,773.662a12.613,12.613,0,0,1-3.856-.473c-.3-.184-.422-.844-.462-1.149h-.045s.085,1.065.481,1.306a12.611,12.611,0,0,0,3.854.473c.431,0,.578-.157.57-.383C298.3,773.575,298.142,773.659,297.823,773.662Z" transform="translate(-263.215 -670.011)" opacity="0.2"/>
    <ellipse id="Ellipse_416" data-name="Ellipse 416" cx="44.897" cy="2.036" rx="44.897" ry="2.036" transform="translate(38.61 109.189)" fill="#ffce33" opacity="0.1"/>
    <path id="Path_2387" data-name="Path 2387" d="M619.555,389.385s2.862,5.415,3.084,6.188a1.044,1.044,0,0,0,.965.771s2.851.681,3.533.773,6.588.59,6.588.59,1.5.046,1.681-.5c.166-.5,3.062-3.12,4.739-.833a1.667,1.667,0,0,1,.243,1.488c-.308.981-.94,2.539-1.619,1.57-.954-1.363-2.064-.98-2.064-.254s-1.526.457-2.025.559c-.273.056-1.21.305-2.021.523a14.73,14.73,0,0,1-2.879.478,17.385,17.385,0,0,1-4.823-.125,13.091,13.091,0,0,0-3.544-.495,1.165,1.165,0,0,1-.691-.248,10.78,10.78,0,0,1-2.624-2.983c-1.182-2.044-3.612-6.278-3.448-7.5S619.555,389.385,619.555,389.385Z" transform="translate(-540.623 -339.037)" fill="#efb7b9"/>
    <path id="Path_2388" data-name="Path 2388" d="M619.555,389.385s2.862,5.415,3.084,6.188a1.044,1.044,0,0,0,.965.771s2.851.681,3.533.773,6.588.59,6.588.59,1.5.046,1.681-.5c.166-.5,3.062-3.12,4.739-.833a1.667,1.667,0,0,1,.243,1.488c-.308.981-.94,2.539-1.619,1.57-.954-1.363-2.064-.98-2.064-.254s-1.526.457-2.025.559c-.273.056-1.21.305-2.021.523a14.73,14.73,0,0,1-2.879.478,17.385,17.385,0,0,1-4.823-.125,13.091,13.091,0,0,0-3.544-.495,1.165,1.165,0,0,1-.691-.248,10.78,10.78,0,0,1-2.624-2.983c-1.182-2.044-3.612-6.278-3.448-7.5S619.555,389.385,619.555,389.385Z" transform="translate(-540.623 -339.037)" opacity="0.05"/>
    <path id="Path_2389" data-name="Path 2389" d="M828.394,537.532c-1.3,1.409-2.25,1.964-2.205.477.136-4.5-7.769-24.832-7.769-24.832l2.337-.177A60.55,60.55,0,0,1,828.394,537.532Z" transform="translate(-716.627 -446.275)" fill="none"/>
    <path id="Path_2390" data-name="Path 2390" d="M830.9,693.684a11.244,11.244,0,0,1-22.446.954c-.016-.183-.029-.365-.034-.545v-.01q-.008-.2-.008-.409a11.244,11.244,0,0,1,22.488,0Z" transform="translate(-707.982 -592.614)" fill="#65617d"/>
    <circle id="Ellipse_417" data-name="Ellipse 417" cx="6.133" cy="6.133" r="6.133" transform="translate(105.539 94.93)" fill="#dce0ed"/>
    <circle id="Ellipse_418" data-name="Ellipse 418" cx="3.68" cy="3.68" r="3.68" transform="translate(107.993 97.383)" fill="#65617d"/>
    <path id="Path_2391" data-name="Path 2391" d="M502.666,555.948l-27.076.545V552.5c.243-3.212,3.544-4.339,6.542-4.693a18.774,18.774,0,0,1,7,.525,47.984,47.984,0,0,0,11.207,1.844,1.719,1.719,0,0,1,1.663,1.4c.086.457.17.954.249,1.445.06.384.117.763.169,1.116C502.566,555.155,502.666,555.948,502.666,555.948Z" transform="translate(-420.522 -476.238)" fill="#65617d"/>
    <path id="Path_2392" data-name="Path 2392" d="M462.391,548.048H406.145a2.215,2.215,0,0,1-2.051-1.326,1.539,1.539,0,0,1,.8-2.038,6.372,6.372,0,0,0,2.769-3.388,33.729,33.729,0,0,0,1.416-8.875c.237-4.48,1.859-6.695,3.612-7.769h0a7.151,7.151,0,0,1,4.746-.865l22.806.183a4.38,4.38,0,0,1,1.113.726c2.032,1.892-.931,4.361-.931,4.361a10.7,10.7,0,0,0-1.546,13.538H450.55a10.739,10.739,0,0,0,6.113-1.871,6.159,6.159,0,0,0,2.423-2.782c.18-.488.363-.975.581-1.446,3.061-6.639-.631-17.438-2.224-21.477-.4-1-.661-1.59-.661-1.59l3.659-.273,2.317-.176h.023a60.6,60.6,0,0,1,7.632,24.532c.06.631.109,1.243.149,1.83a8.177,8.177,0,0,1-8.171,8.7Z" transform="translate(-358.646 -446.258)" fill="#ffce33"/>
    <path id="Path_2393" data-name="Path 2393" d="M502.417,587.926H475.59V586.81h26.659C502.309,587.188,502.366,587.566,502.417,587.926Z" transform="translate(-420.522 -510.026)" opacity="0.1"/>
    <path id="Path_2394" data-name="Path 2394" d="M496.765,592.635H468.315a.544.544,0,0,1-.215-.044,7.15,7.15,0,0,1,4.746-.865l22.806.183A4.383,4.383,0,0,1,496.765,592.635Z" transform="translate(-414.053 -514.189)" opacity="0.1"/>
    <rect id="Rectangle_1961" data-name="Rectangle 1961" width="39.756" height="1.116" rx="0.558" transform="translate(43.75 77.05)" fill="#dce0ed"/>
    <path id="Path_2395" data-name="Path 2395" d="M828.394,537.532c-1.3,1.409-2.25,1.964-2.205.477.136-4.5-7.769-24.832-7.769-24.832l2.337-.177A60.55,60.55,0,0,1,828.394,537.532Z" transform="translate(-716.627 -446.275)" opacity="0.1"/>
    <path id="Path_2396" data-name="Path 2396" d="M830.89,692.53c-1.343.322-3,.649-5.043.954q-1.141.168-2.453.322c-2.089.248-4.506.465-7.3.631q-1.186.071-2.463.129-2.392.109-5.12.166l-.034-.545v-.01c2.542-1.026,6.542-3.764,7.185-10.9a11.249,11.249,0,0,1,15.226,9.26Z" transform="translate(-708.042 -592.699)" opacity="0.1"/>
    <path id="Path_2397" data-name="Path 2397" d="M792.92,636.777s12.907-1.4,8.461-21.067c0,0,6.377,5.847,10.344,9.1s11.04,7.729,11.04,7.729S818.543,636.481,792.92,636.777Z" transform="translate(-694.603 -534.987)" fill="#ffce33"/>
    <path id="Path_2398" data-name="Path 2398" d="M792.92,636.777s12.907-1.4,8.461-21.067c0,0,6.377,5.847,10.344,9.1s11.04,7.729,11.04,7.729S818.543,636.481,792.92,636.777Z" transform="translate(-694.603 -534.987)" fill="#fff" opacity="0.1"/>
    <circle id="Ellipse_419" data-name="Ellipse 419" cx="11.244" cy="11.244" r="11.244" transform="translate(52.592 89.819)" fill="#65617d"/>
    <circle id="Ellipse_420" data-name="Ellipse 420" cx="6.133" cy="6.133" r="6.133" transform="translate(57.703 94.93)" fill="#dce0ed"/>
    <circle id="Ellipse_421" data-name="Ellipse 421" cx="3.68" cy="3.68" r="3.68" transform="translate(60.156 97.383)" fill="#65617d"/>
    <path id="Path_2399" data-name="Path 2399" d="M469.179,656.857a12.882,12.882,0,1,0-25.759,0q0,.461.031.912h25.7Q469.179,657.317,469.179,656.857Z" transform="translate(-392.736 -559.171)" opacity="0.1"/>
    <path id="Path_2400" data-name="Path 2400" d="M471.725,658.28a12.405,12.405,0,1,0-24.8,0c0,.3.011.587.03.878h24.745C471.714,658.867,471.725,658.576,471.725,658.28Z" transform="translate(-395.759 -560.82)" fill="#ffce33"/>
    <path id="Path_2401" data-name="Path 2401" d="M471.725,658.28c0,.2,0,.409-.015.605,0,.091-.01.181-.015.273H446.95c0-.091-.011-.181-.015-.273-.01-.2-.015-.409-.015-.605a12.405,12.405,0,1,1,24.8,0Z" transform="translate(-395.759 -560.82)" fill="#fff" opacity="0.1"/>
    <path id="Path_2402" data-name="Path 2402" d="M471.805,743c0,.091-.01.181-.015.273H447.045c0-.091-.011-.181-.015-.273Z" transform="translate(-395.854 -644.929)" opacity="0.1"/>
    <rect id="Rectangle_1962" data-name="Rectangle 1962" width="33.32" height="2.907" rx="1.454" transform="translate(45.735 98.61)" opacity="0.1"/>
    <rect id="Rectangle_1963" data-name="Rectangle 1963" width="33.32" height="2.907" rx="1.454" transform="translate(45.735 98.337)" fill="#dce0ed"/>
    <ellipse id="Ellipse_422" data-name="Ellipse 422" cx="1.633" cy="4.111" rx="1.633" ry="4.111" transform="translate(104.674 72.559) rotate(-24.33)" opacity="0.1"/>
    <ellipse id="Ellipse_423" data-name="Ellipse 423" cx="1.633" cy="4.111" rx="1.633" ry="4.111" transform="translate(104.81 72.422) rotate(-24.33)" fill="#dce0ed"/>
    <path id="Path_2403" data-name="Path 2403" d="M797.564,513v2.136h-4.157a7.165,7.165,0,0,1-1.156-.093c-.4-1-.661-1.591-.661-1.591l3.659-.273Z" transform="translate(-693.454 -446.275)" opacity="0.1"/>
    <path id="Path_2404" data-name="Path 2404" d="M767.187,445.718H763.03a6.367,6.367,0,0,1-6.61-6.1v-.566a6.37,6.37,0,0,1,6.61-6.1l4.157.378Z" transform="translate(-663.077 -377.136)" fill="#ffce33"/>
    <path id="Path_2405" data-name="Path 2405" d="M756.883,458.586s2.487,1.329,1.056,3.578c0,0-1.755,2.878-4.515,2.606l-1-6.184A20.9,20.9,0,0,1,756.883,458.586Z" transform="translate(-659.622 -399.16)" fill="#ffce33"/>
    <path id="Path_2406" data-name="Path 2406" d="M755.945,458.455a2.644,2.644,0,0,1,2.023,1.066,2.178,2.178,0,0,1-.008,2.632s-1.755,2.878-4.515,2.606l-1-6.183A29.315,29.315,0,0,1,755.945,458.455Z" transform="translate(-659.64 -399.149)" opacity="0.1"/>
    <path id="Path_2407" data-name="Path 2407" d="M762.56,390.17h.8a2.538,2.538,0,0,1,2.538,2.538v7.316a2.538,2.538,0,0,1-2.538,2.538h-.8Z" transform="translate(-658.587 -333.978)" opacity="0.1"/>
    <path id="Path_2408" data-name="Path 2408" d="M763.56,390.17h.8a2.538,2.538,0,0,1,2.538,2.538v7.316a2.538,2.538,0,0,1-2.538,2.538h-.8Z" transform="translate(-659.45 -333.978)" fill="#dce0ed"/>
    <path id="Path_2409" data-name="Path 2409" d="M618.88,513.078s.642.234,1.5.562a33.927,33.927,0,0,1,3.953,1.71,30.094,30.094,0,0,0,5.022,1.595,16.353,16.353,0,0,0,4.233.522c1.45-.014,3.207-.027,3.692-.027a1.538,1.538,0,0,1,.253.019c.51.084.489.427.477.508v.018c-3,1.817-6.633,9.949-6.859,11.312a29.1,29.1,0,0,1-2.407,5.21c-.248.454-.409.741-.409.741l.909,1.044,2.635,1.182,2.5,1.09a17.6,17.6,0,0,0,2.681,0c.045-.136.045-1.544.045-1.544a7.442,7.442,0,0,1-.911-.692,15.077,15.077,0,0,1-1.679-1.716c-1.453-1.727,1.454-5.043,1.454-5.043l5.588-7.268s.454-.818,2.635-4.089,0-5.043,0-5.043l-3.838-1.593c-6.656-2.491-14.685-4.488-14.685-4.488l-.114-.015-1.7-.213Z" transform="translate(-544.283 -440.972)" fill="#efb7b9"/>
    <path id="Path_2410" data-name="Path 2410" d="M690.68,713.79s.477.563.12.613a5.93,5.93,0,0,1-1.295-.153l-5.946-3.135s-.647-.461-.8.443-.256.818-.256.818-.784,1.686,0,2.035,5.491,1.729,5.491,1.729,6.832,1.551,7.48-.238-1.158-1.482-1.158-1.482-2.249-.545-3.016-1.635C691.293,712.785,690.187,713.092,690.68,713.79Z" transform="translate(-598.934 -617.289)" fill="#444053"/>
    <path id="Path_2411" data-name="Path 2411" d="M644.184,513.169l-3.838-1.593c-6.656-2.491-14.685-4.488-14.685-4.488l-.115-.015-1.7-.213-4.964,6.218s.642.234,1.5.561a33.956,33.956,0,0,1,3.953,1.711,30.1,30.1,0,0,0,5.022,1.595,16.355,16.355,0,0,0,4.233.522c1.45-.014,3.207-.027,3.692-.027a1.531,1.531,0,0,1,.253.019c.51.085.489.427.477.508v.018c-3,1.817-6.633,9.949-6.859,11.312a29.1,29.1,0,0,1-2.407,5.21l-.1.183c-.2-.033-.444.038-.531.553-.154.9-.256.818-.256.818s-.784,1.686,0,2.035,5.487,1.73,5.487,1.73,6.832,1.551,7.48-.238-1.158-1.481-1.158-1.481-2.249-.545-3.016-1.636a1.529,1.529,0,0,0-.2.074c-.08-.065-.166-.136-.258-.215a15.088,15.088,0,0,1-1.679-1.716c-1.453-1.727,1.454-5.043,1.454-5.043l5.588-7.268s.454-.818,2.635-4.089S644.184,513.169,644.184,513.169Z" transform="translate(-544.283 -440.972)" opacity="0.05"/>
    <path id="Path_2412" data-name="Path 2412" d="M585.3,283.19l.207.262.116.146.722.909s1.724.553,3.236.912c1.574.372,2.917.534,1.849-.356a2.338,2.338,0,0,1-.465-2.467,10.212,10.212,0,0,1,.867-2.194q.08-.155.159-.3a18.181,18.181,0,0,1,1.123-1.814,32.249,32.249,0,0,0-3.011-1.85c-1.248-.646-2.273-.928-1.623.35a2.991,2.991,0,0,1-.109,2.615c-.03.069-.063.136-.1.208a9.378,9.378,0,0,1-1.287,1.893A14.936,14.936,0,0,1,585.3,283.19Z" transform="translate(-515.279 -241.48)" fill="#efb7b9"/>
    <path id="Path_2413" data-name="Path 2413" d="M568.428,436.24l.924.844.893,3.435h-1.49l-1.645-2.14Z" transform="translate(-489.775 -373.769)" fill="#444053"/>
    <path id="Path_2414" data-name="Path 2414" d="M567.11,438.378l.995,1.293.65.846h1.49l-.153-.587-.65-2.5-.09-.345-.924-.844-1.262,2.047Z" transform="translate(-489.775 -373.769)" opacity="0.1"/>
    <path id="Path_2415" data-name="Path 2415" d="M567.11,438.378l.995,1.293.65.846h1.49l-.153-.587-.65-2.5-.09-.345-.924-.844-1.262,2.047Z" transform="translate(-489.775 -373.769)" opacity="0.1"/>
    <path id="Path_2416" data-name="Path 2416" d="M602.64,517.15s.642.234,1.5.562a33.91,33.91,0,0,1,3.952,1.71,30.1,30.1,0,0,0,5.022,1.595,16.352,16.352,0,0,0,4.233.523c1.45-.014,3.207-.027,3.692-.027a1.525,1.525,0,0,1,.254.019c.51.084.489.427.477.508v.018c-3,1.817-6.633,9.949-6.859,11.312a29.1,29.1,0,0,1-2.407,5.21c-.248.454-.409.741-.409.741l.909,1.044,2.633,1.18,2.5,1.09a17.6,17.6,0,0,0,2.681,0c.045-.136.045-1.544.045-1.544a7.438,7.438,0,0,1-.91-.692,15.042,15.042,0,0,1-1.679-1.716c-1.453-1.727,1.454-5.043,1.454-5.043l5.588-7.268s.454-.818,2.635-4.089,0-5.043,0-5.043l-3.5-2c-5.452-3.316-13.13-5.224-13.13-5.224l-.115-.015-1.7-.213Z" transform="translate(-530.256 -443.503)" fill="#efb7b9"/>
    <path id="Path_2417" data-name="Path 2417" d="M672,721.744l.909,1.044,2.635,1.182,2.5,1.09a17.592,17.592,0,0,0,2.681,0c.045-.136.045-1.544.045-1.544a7.44,7.44,0,0,1-.91-.692c-.282.151-.6.435-.293.874,0,0,.477.562.12.613a5.849,5.849,0,0,1-1.295-.153l-5.946-3.135-.034-.023Z" transform="translate(-590.163 -625.927)" opacity="0.1"/>
    <path id="Path_2418" data-name="Path 2418" d="M674.44,725.095s.477.562.119.613a5.819,5.819,0,0,1-1.295-.154l-5.945-3.135s-.647-.459-.8.443-.255.818-.255.818-.784,1.687,0,2.036,5.486,1.724,5.486,1.724,6.831,1.55,7.478-.238-1.159-1.483-1.159-1.483-2.249-.545-3.015-1.635C675.057,724.089,673.945,724.4,674.44,725.095Z" transform="translate(-584.907 -627.052)" fill="#444053"/>
    <path id="Path_2419" data-name="Path 2419" d="M605.3,279.044a6.32,6.32,0,0,0,3.016,1.408,5.032,5.032,0,0,0,.791-.063,18.427,18.427,0,0,1,1.282-2.117s-6-4.18-4.634-1.5C606.2,277.664,605.762,278.1,605.3,279.044Z" transform="translate(-532.554 -241.469)" opacity="0.1"/>
    <path id="Path_2420" data-name="Path 2420" d="M591.43,240.342a4.9,4.9,0,0,0,2.237,4.116,4.5,4.5,0,0,0,.48.273,4.906,4.906,0,1,0-2.716-4.391Z" transform="translate(-520.574 -206.538)" fill="#efb7b9"/>
    <path id="Path_2421" data-name="Path 2421" d="M602.64,517.15s.642.234,1.5.562a7.225,7.225,0,0,1,1.321-1.015c.5-.183,2.136-1.137,2.091-1.409a2.39,2.39,0,0,1,1.317-1.5c.635-.183.272-1.135.272-1.135s1.227-.454,1.532-1.09,1.24-1.454.921-1.408a.988.988,0,0,1-.387-.151l-1.7-.213Z" transform="translate(-530.256 -443.503)" opacity="0.1"/>
    <path id="Path_2422" data-name="Path 2422" d="M564.237,502.2s2.091,1.727,2.187,2.5,1.492.728,1.492.728a20.7,20.7,0,0,1,2.59-2.181c.5-.181,2.136-1.137,2.091-1.409a2.39,2.39,0,0,1,1.317-1.5c.635-.183.273-1.135.273-1.135s1.227-.454,1.532-1.09,1.24-1.454.921-1.408a2.311,2.311,0,0,1-.743-.353c-.448-.273-1.017-.642-1.48-.954-.491-.333-.865-.6-.865-.6s-.214-.038-.581-.091c-1.978-.286-8.419-1.017-9.914,1.363a3.606,3.606,0,0,0-.443,1.018C561.945,499.625,564.237,502.2,564.237,502.2Z" transform="translate(-495.58 -430.189)" fill="#444053"/>
    <path id="Path_2423" data-name="Path 2423" d="M572.064,511.37a10.779,10.779,0,0,1-2.93,1.2C568.337,512.575,572.064,511.37,572.064,511.37Z" transform="translate(-501.22 -444.868)" opacity="0.1"/>
    <path id="Path_2424" data-name="Path 2424" d="M581.618,517.953s-3.178,1.068-3.178,1.908S578.143,517.612,581.618,517.953Z" transform="translate(-509.349 -450.531)" opacity="0.1"/>
    <path id="Path_2425" data-name="Path 2425" d="M657.345,482.81l-.045.061A.136.136,0,0,0,657.345,482.81Z" transform="translate(-577.466 -420.2)" opacity="0.1"/>
    <path id="Path_2426" data-name="Path 2426" d="M585.3,318.759l.207.262.116.146.722.909s1.724.553,3.236.912c1.574.372,2.917.534,1.849-.356a2.338,2.338,0,0,1-.465-2.467l-.048-.061s.048.919-.5.936c-.733.023-.743-.224-1.419-.508a4.561,4.561,0,0,1-2.014-1.461,14.946,14.946,0,0,1-1.689,1.689Z" transform="translate(-515.279 -277.049)" opacity="0.1"/>
    <path id="Path_2427" data-name="Path 2427" d="M563.39,486.215a1.574,1.574,0,0,0,1.169.027c1.408-.455,3.635-1.551,4.679-1.071a14.026,14.026,0,0,0,5.452.05c.309-.08.487-.18.459-.3a.815.815,0,0,1,.048-.4,7.357,7.357,0,0,1,.83-1.547l-.09-.345-.924-.844-1.262,2.044c-1.978-.286-8.419-1.017-9.914,1.363A3.61,3.61,0,0,0,563.39,486.215Z" transform="translate(-496.356 -419.319)" opacity="0.1"/>
    <path id="Path_2428" data-name="Path 2428" d="M555.506,343.372a1.546,1.546,0,0,0,1.953.818c1.408-.454,3.635-1.551,4.679-1.071s6.043.343,5.907-.247,1.227-2.453,1.227-2.453-.744-.136-1.2-2.566c-.068-.354-.129-.758-.181-1.216a15.474,15.474,0,0,1-.079-2.827,6.673,6.673,0,0,1,1.105-3.7,3.058,3.058,0,0,0,.181-3.452c-.571-1.048-2.876-3.952-2.907-5.247a5.273,5.273,0,0,0-1.152-2.54s.048.919-.5.936c-.733.023-.743-.223-1.419-.508-.994-.42-2.014-1.16-2.081-1.655a5,5,0,0,0-5.074,4.017c-.909,4.225-.59,6.542-.454,7.042s1.317,6.951.363,9.677A9.391,9.391,0,0,0,555.506,343.372Z" transform="translate(-489.392 -277.539)" fill="#a36468"/>
    <path id="Path_2429" data-name="Path 2429" d="M589.8,411.984a10.688,10.688,0,0,0,2.952,3.226,20.443,20.443,0,0,1,2.385.159c-.068-.354-.136-.758-.181-1.216a15.475,15.475,0,0,1-.079-2.827,1.029,1.029,0,0,1-.534-.66c-.228-.773-2.254-4.453-2.254-4.453s-4.741-1.227-4.906,0S588.622,409.94,589.8,411.984Z" transform="translate(-516.898 -353.574)" opacity="0.1"/>
    <path id="Path_2430" data-name="Path 2430" d="M586.857,389.385s2.862,5.415,3.084,6.188a1.044,1.044,0,0,0,.965.771s2.851.681,3.533.773,6.592.59,6.592.59,1.5.046,1.68-.5c.166-.5,3.062-3.12,4.739-.833a1.667,1.667,0,0,1,.243,1.488c-.308.981-.94,2.539-1.619,1.57-.954-1.363-2.063-.98-2.063-.254s-1.527.457-2.025.559c-.273.056-1.21.305-2.021.523a14.723,14.723,0,0,1-2.885.478,17.384,17.384,0,0,1-4.823-.125,13.077,13.077,0,0,0-3.544-.495,1.166,1.166,0,0,1-.691-.248,10.776,10.776,0,0,1-2.622-2.983c-1.182-2.044-3.612-6.278-3.448-7.5S586.857,389.385,586.857,389.385Z" transform="translate(-512.379 -339.037)" fill="#efb7b9"/>
    <path id="Path_2431" data-name="Path 2431" d="M583.381,333.562a36.687,36.687,0,0,1,2.243,4.361c.71,1.817,1.573,5,1.573,5l-4.271-.5-.362-.59s-3.05,1.908-2.686,2.726a7.145,7.145,0,0,1-.727-3.544c.091-2.317-.328-6.452,0-7.451S582.377,332.79,583.381,333.562Z" transform="translate(-509.858 -290.717)" opacity="0.1"/>
    <path id="Path_2432" data-name="Path 2432" d="M579.162,339.02a7.143,7.143,0,0,0,.726,3.544c-.364-.818,2.686-2.726,2.686-2.726l.358.59,4.27.5s-.863-3.181-1.573-5a27.813,27.813,0,0,0-1.461-3c-.437-.795-.782-1.363-.782-1.363a4.812,4.812,0,0,0-2.83-.657,3.657,3.657,0,0,0-.462.056,1.285,1.285,0,0,0-.885.481.638.638,0,0,0-.055.12C578.83,332.568,579.25,336.7,579.162,339.02Z" transform="translate(-509.864 -288.997)" fill="#a36468"/>
    <path id="Path_2433" data-name="Path 2433" d="M566,437s1.806,2.487,2.351,2.555C568.347,439.561,566.03,439.044,566,437Z" transform="translate(-498.61 -380.634)" opacity="0.1"/>
    <path id="Path_2434" data-name="Path 2434" d="M566,463s3.407,3.441,4.5,3.475S566,463,566,463Z" transform="translate(-498.61 -403.09)" opacity="0.1"/>
    <path id="Path_2435" data-name="Path 2435" d="M566,473.54s2.181,2.555,2.317,2.555S565.959,475.21,566,473.54Z" transform="translate(-498.607 -412.193)" opacity="0.1"/>
    <path id="Path_2436" data-name="Path 2436" d="M580.33,248.914a3.023,3.023,0,0,0,1-.335c.117-.061.233-.129.346-.2a8.184,8.184,0,0,0,1.243-1.022,5.291,5.291,0,0,0,1.511-2.11,3.8,3.8,0,0,0,.128-.589c.155-1.048.025-2.205.774-2.918a1.784,1.784,0,0,1,.478-.323c1.063-.506,2.6-.179,3.4-1.09.5-.578.492-1.381.879-2.009a4.217,4.217,0,0,1,.755-.759,4.906,4.906,0,1,0-6.764,6.815c-.03.07-.063.136-.1.209a13,13,0,0,1-2.975,3.582l.207.262A1.335,1.335,0,0,0,580.33,248.914Z" transform="translate(-510.987 -206.461)" opacity="0.1"/>
    <path id="Path_2437" data-name="Path 2437" d="M430.594,213.921c-.923,1.058-2.862.442-3.877,1.411-.891.849-.537,2.331-.9,3.507a5.3,5.3,0,0,1-1.512,2.11c-.913.889-2.081,1.791-3.33,1.536-.74-.151-1.465-.7-2.181-.45a2.55,2.55,0,0,0-.876.707,6.039,6.039,0,0,1-3.349,1.732,1.432,1.432,0,0,1-.759-.035c-.382-.155-.587-.572-.935-.795-.681-.436-1.556.011-2.264.4a15.841,15.841,0,0,1-13.013.936l1.1-.545c-.234-.478-.868-.583-1.272-.934-.831-.721-.342-2.163.537-2.824s2.017-.891,2.928-1.509a.759.759,0,0,0,.391-.514.817.817,0,0,0-.149-.455,4.754,4.754,0,0,1-.913-2.749c.166-1.5,1.8-2.421,3.306-2.525s2.992.348,4.5.373a2.948,2.948,0,0,0,1.584-.326,4.791,4.791,0,0,0,1.378-1.791,7.314,7.314,0,0,1,2.93-2.7c1.363-.688,2.906-.93,4.323-1.5a33.007,33.007,0,0,1,4.278-1.869,8.407,8.407,0,0,1,6.452,1.4c.915.593,3.835,2.5,3.816,3.713-.015.722-.954,1.114-1.31,1.68C431.086,212.541,431.1,213.343,430.594,213.921Z" transform="translate(-352.644 -180.191)" fill="#965d7b"/>
    <g id="Group_1699" data-name="Group 1699" transform="translate(44.358 29.494)" opacity="0.1">
      <path id="Path_2438" data-name="Path 2438" d="M421.394,287.022a.831.831,0,0,1,.149.455.461.461,0,0,1-.048.165,5.746,5.746,0,0,1-.885-2.242A8.664,8.664,0,0,0,421.394,287.022Z" transform="translate(-417.394 -279.189)"/>
      <path id="Path_2439" data-name="Path 2439" d="M397.3,333.808c.4.35,1.036.455,1.272.934l-.39.194a4.387,4.387,0,0,1-.746-.446,1.283,1.283,0,0,1-.425-1.059A1.172,1.172,0,0,0,397.3,333.808Z" transform="translate(-397.01 -320.673)"/>
      <path id="Path_2440" data-name="Path 2440" d="M414.277,253.508c.707-.39,1.584-.837,2.264-.4.346.222.553.639.935.795a1.427,1.427,0,0,0,.758.035,6.043,6.043,0,0,0,3.35-1.732,2.509,2.509,0,0,1,.876-.707c.711-.255,1.436.3,2.181.45,1.248.255,2.415-.647,3.33-1.536a5.288,5.288,0,0,0,1.51-2.11c.365-1.176.011-2.658.9-3.507,1.018-.969,2.953-.353,3.878-1.411.5-.578.492-1.381.879-2.009.327-.53,1.175-.906,1.295-1.546a1.186,1.186,0,0,1,.151.545c-.015.722-.954,1.114-1.31,1.68-.387.628-.376,1.431-.879,2.009-.924,1.058-2.862.442-3.878,1.411-.891.849-.537,2.331-.9,3.507a5.3,5.3,0,0,1-1.51,2.11c-.915.889-2.081,1.791-3.33,1.536-.741-.151-1.467-.7-2.181-.45a2.524,2.524,0,0,0-.876.707,6.043,6.043,0,0,1-3.35,1.732,1.426,1.426,0,0,1-.758-.035c-.382-.155-.589-.572-.935-.795-.681-.436-1.556.011-2.264.4a15.841,15.841,0,0,1-13.013.936l.762-.378A15.871,15.871,0,0,0,414.277,253.508Z" transform="translate(-400.802 -239.83)"/>
    </g>
    <path id="Path_2441" data-name="Path 2441" d="M739.977,594.64l1.146-.555v-.217a6.384,6.384,0,0,0-1.623.258C740.01,594.216,739.989,594.559,739.977,594.64Z" transform="translate(-648.463 -516.105)" opacity="0.1"/>
    <ellipse id="Ellipse_424" data-name="Ellipse 424" cx="2.761" cy="3.36" rx="2.761" ry="3.36" transform="translate(89.749 59.283)" fill="#ffce33"/>
    <path id="Path_2442" data-name="Path 2442" d="M362.842,405.42,358.4,409.8l-14.593-.255,4.012-4.123Z" transform="translate(-296.909 -347.15)" fill="#dda2a6"/>
    <path id="Path_2443" data-name="Path 2443" d="M455.319,420.4V405.42L450.88,409.8v14.654Z" transform="translate(-389.386 -347.15)" fill="#b77b7f"/>
    <path id="Path_2444" data-name="Path 2444" d="M343.81,435.67v14.909H358.4V435.925Z" transform="translate(-296.909 -373.277)" fill="#dda2a6"/>
    <path id="Path_2445" data-name="Path 2445" d="M343.81,435.67v14.909H358.4V435.925Z" transform="translate(-296.909 -373.277)" fill="#fff" opacity="0.3"/>
    <path id="Path_2446" data-name="Path 2446" d="M364.438,455.843l-10.853-1.863-1.415,7.125,11.173,2.053Z" transform="translate(-304.129 -389.091)" fill="#dce0ed"/>
    <path id="Path_2447" data-name="Path 2447" d="M379.058,472.6l-7.3-1.146-.183.951,7.3,1.237Z" transform="translate(-320.894 -404.18)" fill="#ffce33"/>
    <path id="Path_2448" data-name="Path 2448" d="M384.273,490.972l-4.15-.6-.183,1.056,4.333.608Z" transform="translate(-328.114 -420.522)" fill="#ffce33"/>
    <path id="Path_2449" data-name="Path 2449" d="M461.8,425.726l-.2-5.9-1.141,1.126.2,5.91Z" transform="translate(-397.66 -359.596)" fill="#65617d"/>
    <path id="Path_2450" data-name="Path 2450" d="M356.589,416.49l14.023.189.472.266-1.141,1.126-.394-.232-13.889-.394Z" transform="translate(-307.143 -356.711)" fill="#65617d"/>
  </g>
</svg>
